<?xml version="1.0" encoding="UTF-8"?>
<svg version="1.1" xmlns="http://www.w3.org/2000/svg" width="512" height="512">
<path d="M0 0 C0.99422974 0.00215515 1.98845947 0.0043103 3.01281738 0.00653076 C17.48109955 0.05686686 31.66189071 0.35398296 45.875 3.3125 C46.85130371 3.51117676 47.82760742 3.70985352 48.83349609 3.91455078 C97.21339984 14.03634541 141.2005519 35.95291013 176.875 70.3125 C177.8640332 71.26068604 177.8640332 71.26068604 178.87304688 72.22802734 C188.36130305 81.37247479 197.1012044 90.66984009 204.875 101.3125 C205.73306152 102.46355017 206.59113451 103.61459177 207.44921875 104.765625 C213.48736829 112.95680614 218.84595521 121.47054105 223.875 130.3125 C224.23948242 130.94430176 224.60396484 131.57610352 224.97949219 132.22705078 C246.4740329 169.78084014 256.35126533 212.44304389 256.1875 255.4375 C256.18476578 256.9278476 256.18476578 256.9278476 256.18197632 258.44830322 C256.13719978 272.942192 255.67610213 287.05386097 252.875 301.3125 C252.71402832 302.20807617 252.55305664 303.10365234 252.38720703 304.02636719 C244.49797508 347.63313051 224.80850867 388.77106217 195.875 422.3125 C195.24078125 423.05757813 194.6065625 423.80265625 193.953125 424.5703125 C182.14198485 438.07529833 169.39139772 450.74668743 154.875 461.3125 C153.72505169 462.16899066 152.57531411 463.02576433 151.42578125 463.8828125 C143.23410474 469.9234414 134.71854922 475.28255071 125.875 480.3125 C125.24319824 480.67698242 124.61139648 481.04146484 123.96044922 481.41699219 C97.93166464 496.31500327 68.51361377 505.96041257 38.875 510.3125 C37.67254639 510.48910156 36.47009277 510.66570312 35.23120117 510.84765625 C23.51493596 512.45161689 11.87584274 512.71324553 0.0625 512.6875 C-0.92433777 512.68662384 -1.91117554 512.68574768 -2.92791748 512.68484497 C-67.88219852 512.49532667 -130.29571624 487.41579016 -177.125 442.3125 C-177.78435547 441.68037598 -178.44371094 441.04825195 -179.12304688 440.39697266 C-188.61130305 431.25252521 -197.3512044 421.95515991 -205.125 411.3125 C-205.98306152 410.16144983 -206.84113451 409.01040823 -207.69921875 407.859375 C-213.73736829 399.66819386 -219.09595521 391.15445895 -224.125 382.3125 C-224.48948242 381.68069824 -224.85396484 381.04889648 -225.22949219 380.39794922 C-240.15973018 354.31285999 -249.63885054 324.97664886 -254.125 295.3125 C-254.38990234 293.62882324 -254.38990234 293.62882324 -254.66015625 291.91113281 C-256.3170586 280.29802257 -256.52373513 268.78070055 -256.5 257.0625 C-256.49945618 256.05048523 -256.49891235 255.03847046 -256.49835205 253.99578857 C-256.4576051 237.46132605 -255.53386907 221.54185136 -252.125 205.3125 C-251.91601074 204.29720215 -251.70702148 203.2819043 -251.49169922 202.23583984 C-242.71380189 160.92383315 -223.71113066 122.2919774 -196.125 90.3125 C-195.49078125 89.56742187 -194.8565625 88.82234375 -194.203125 88.0546875 C-182.39198485 74.54970167 -169.64139772 61.87831257 -155.125 51.3125 C-153.97505169 50.45600934 -152.82531411 49.59923567 -151.67578125 48.7421875 C-143.48410474 42.7015586 -134.96854922 37.34244929 -126.125 32.3125 C-125.49319824 31.94801758 -124.86139648 31.58353516 -124.21044922 31.20800781 C-98.17975097 16.30890142 -68.76448404 6.66904478 -39.125 2.3125 C-37.32675781 2.04651001 -37.32675781 2.04651001 -35.4921875 1.77514648 C-23.66616559 0.14661384 -11.92341476 -0.04652724 0 0 Z M-16.6171875 76.10546875 C-20.55513767 81.86956679 -21.56846376 87.71403823 -21.48576355 94.56359863 C-21.48832682 95.35447608 -21.4908901 96.14535354 -21.49353105 96.96019697 C-21.49844069 99.58891182 -21.48202316 102.21704192 -21.46557617 104.84570312 C-21.46472929 106.73848456 -21.46520624 108.63126699 -21.46690369 110.52404785 C-21.46776267 115.64746458 -21.45015253 120.77066961 -21.42918181 125.89403725 C-21.4103989 131.25385076 -21.4086633 136.61366939 -21.40510559 141.97351074 C-21.39578988 152.11642404 -21.37118247 162.25924007 -21.34105712 172.40211058 C-21.30749839 183.95224401 -21.29102339 195.50238215 -21.27597082 207.05255222 C-21.24463254 230.80592203 -21.19188121 254.55920556 -21.125 278.3125 C-25.50508238 274.53140925 -29.82264877 270.74365469 -33.88525391 266.61816406 C-34.72617584 265.76748352 -35.56709778 264.91680298 -36.4335022 264.04034424 C-37.3139621 263.14531189 -38.194422 262.25027954 -39.1015625 261.328125 C-40.52081526 259.89583915 -41.94007709 258.46356216 -43.359869 257.03181076 C-46.82580504 253.53556052 -50.28658653 250.03426818 -53.74023438 246.52587891 C-55.69103021 244.54465244 -57.64580794 242.56751795 -59.60507202 240.59466553 C-61.44107107 238.74556146 -63.27111961 236.89052489 -65.09439087 235.02886963 C-65.92900848 234.19079773 -66.7636261 233.35272583 -67.62353516 232.48925781 C-68.34997223 231.7531427 -69.0764093 231.01702759 -69.82485962 230.25860596 C-75.30424687 225.62259841 -80.17612976 224.70825571 -87.15234375 224.8984375 C-93.08532194 225.72484445 -97.05240427 228.91336585 -101 233.25 C-104.61910612 238.46577058 -105.76846244 242.98511938 -105.125 249.3125 C-102.78932958 256.96937302 -98.21423409 261.93555274 -92.61206055 267.45654297 C-91.32594879 268.75338768 -91.32594879 268.75338768 -90.01385498 270.07643127 C-87.67776963 272.42645164 -85.331137 274.76480778 -82.97825599 277.09793997 C-80.50866238 279.55104808 -78.05179093 282.01684475 -75.5929718 284.48074341 C-71.46502493 288.61319895 -67.32704519 292.73539426 -63.18286133 296.8515625 C-58.40117443 301.60117125 -53.63576036 306.36664371 -48.87871522 311.14092338 C-44.28758288 315.74795056 -39.68518753 320.34356563 -35.07758522 324.93411636 C-33.12311734 326.88173666 -31.17262631 328.83321348 -29.22528648 330.78796005 C-26.50376529 333.51860527 -23.76585964 336.23244981 -21.02612305 338.94482422 C-20.22535843 339.75211472 -19.42459381 340.55940521 -18.5995636 341.39115906 C-13.14330887 346.75517556 -8.2021862 350.73666442 -0.1875 350.75 C0.58464844 350.76933594 1.35679687 350.78867187 2.15234375 350.80859375 C10.61144436 349.26726552 16.0031491 343.75722426 21.8137207 337.87548828 C22.66838425 337.02622772 23.52304779 336.17696716 24.40361023 335.30197144 C26.72897127 332.98692421 29.04520616 330.66322004 31.35711694 328.33475351 C33.7863814 325.89156178 36.22587213 323.45861635 38.66386414 321.0241394 C42.75340494 316.93729391 46.83481798 312.84246803 50.91137695 308.74267578 C55.61681868 304.01060191 60.33459672 299.29111022 65.05923396 294.57820714 C69.61644919 290.03178819 74.16511286 285.47690615 78.70985985 280.91802597 C80.63889941 278.98324535 82.57080145 277.05139234 84.50509071 275.1218605 C87.20524178 272.42462055 89.89548544 269.71787457 92.58325195 267.00830078 C93.38276276 266.21329163 94.18227356 265.41828247 95.00601196 264.59918213 C100.77386381 258.75339329 104.43645131 253.79110803 104.875 245.3125 C103.84255033 238.08535234 100.94990766 232.42551959 95.0546875 227.921875 C89.9926829 225.0117347 84.60490351 224.17984465 78.875 225.3125 C70.85245339 228.44706634 65.56768999 234.12264476 59.6640625 240.16796875 C58.60507238 241.23697649 57.54510868 242.30502058 56.48422241 243.37214661 C53.71108313 246.16609756 50.94976152 248.97142762 48.19128418 251.77984619 C43.75884398 256.28794659 39.30723838 260.7771484 34.85798264 265.26864052 C33.30712174 266.83720337 31.76055071 268.40989392 30.2147522 269.98344421 C29.27033203 270.94107722 28.32586636 271.89866535 27.38134766 272.85620117 C26.55720367 273.69463058 25.73305969 274.53306 24.88394165 275.39689636 C22.875 277.3125 22.875 277.3125 20.875 278.3125 C20.87776538 277.33035774 20.88053076 276.34821548 20.88337994 275.33631134 C20.94999406 251.43286901 20.99928464 227.52943872 21.03043652 203.62592316 C21.04590194 192.06633708 21.06698534 180.50681233 21.10131836 168.94726562 C21.13123055 158.87135511 21.15057736 148.79548903 21.15726548 138.71953535 C21.16117463 133.3849535 21.17035509 128.05049874 21.19219017 122.71595764 C21.21258398 117.69273738 21.21882791 112.66969633 21.21432304 107.6464386 C21.21514694 105.80502345 21.2210953 103.96360219 21.23261642 102.1222229 C21.24760594 99.60246326 21.24393027 97.08337474 21.23576355 94.56359863 C21.24450207 93.83983929 21.2532406 93.11607995 21.26224393 92.37038851 C21.20461601 85.76412759 19.56223329 79.27736203 14.75 74.5 C5.03381793 65.46456954 -7.63148947 67.18488448 -16.6171875 76.10546875 Z M-99.1484375 385.0234375 C-103.81354617 390.76718401 -105.89404247 395.75024901 -105.125 403.3125 C-102.92939583 410.83277295 -98.97239579 415.2203863 -92.46746445 419.36982822 C-89.20358228 420.6833037 -86.38036398 420.57420409 -82.86431885 420.58665466 C-82.13150625 420.59189134 -81.39869365 420.59712802 -80.64367461 420.60252339 C-78.18719927 420.61752957 -75.73093211 420.61822867 -73.27441406 420.61889648 C-71.51342416 420.62651765 -69.75243758 420.63494507 -67.99145508 420.64411926 C-63.20617703 420.66607754 -58.42096289 420.67486515 -53.63564014 420.67994571 C-50.64516504 420.68358822 -47.6547067 420.68982779 -44.66423798 420.6969471 C-34.22895064 420.72144784 -23.79371306 420.73449449 -13.35839844 420.73803711 C-3.63581141 420.74167113 6.08645969 420.77155535 15.80895019 420.81344169 C24.1589916 420.84815231 32.50892838 420.8635857 40.85904145 420.86428314 C45.84487788 420.8650758 50.83039267 420.87380916 55.81615448 420.90228081 C60.5079698 420.92847405 65.19919713 420.93065965 69.89105225 420.91462517 C71.60991957 420.91281158 73.32882078 420.91949332 75.04761505 420.93544388 C84.77833627 421.02021606 92.04601035 420.926137 99.37307358 413.86977291 C103.25751809 409.65287189 104.61664669 405.59462091 105.25 400 C104.58722037 393.48266696 102.36354661 388.28477971 97.4375 383.875 C92.46696086 379.82706673 87.90692129 379.06144227 81.56999207 379.04507446 C80.48174219 379.03827779 80.48174219 379.03827779 79.37150747 379.03134382 C76.9457673 379.01870566 74.52025182 379.02031979 72.09448242 379.02197266 C70.35304984 379.01598701 68.61161992 379.00918138 66.87019348 379.00161743 C62.14281625 378.98395324 57.41551143 378.97926185 52.68810439 378.97798586 C49.73330352 378.97656386 46.77852104 378.97229333 43.82372475 378.96699142 C33.51162167 378.9484893 23.19957029 378.94032098 12.88745117 378.94189453 C3.28133453 378.94309577 -6.32455737 378.92199733 -15.93061715 378.8904072 C-24.18301474 378.86423765 -32.43533895 378.85352753 -40.6877777 378.85480535 C-45.6143027 378.85531481 -50.54062799 378.84964041 -55.46711159 378.82844925 C-60.10224925 378.80905563 -64.73699693 378.80895008 -69.37214851 378.82348251 C-71.07004619 378.82557036 -72.76796835 378.82087113 -74.46582413 378.8087616 C-87.73252234 378.66994941 -87.73252234 378.66994941 -99.1484375 385.0234375 Z " fill="#000000" transform="translate(256.125,-0.3125)"/>
</svg>
